<svg xmlns="http://www.w3.org/2000/svg" width="65.783" height="66.584" viewBox="0 0 65.783 66.584"><path id="icons8-confusion" d="M31.44,0C21.309,0,13.84,3.324,9.01,8.531S2,20.719,2,27.965A26.906,26.906,0,0,0,7.17,43.779a23.535,23.535,0,0,1,4.644,13.733v9.072h2.8V57.512A26.174,26.174,0,0,0,9.535,42.364l-.088-.125A24.218,24.218,0,0,1,4.8,27.965c0-6.736,2.026-13.072,6.309-17.686S21.945,2.663,31.44,2.663c9.534,0,15.722,2.627,19.8,6.658s6.084,9.6,6.834,15.606l.044.291.131.208,6.615,10.778h-.044a1,1,0,0,1-.438,1.5v.042l-6.309,3v7.99a8.568,8.568,0,0,1-9.551,8.406h-.044l-4.337-.291-1.49-.083v9.821h2.8V59.593l2.8.208h.044a11.4,11.4,0,0,0,12.574-11.07V42.364L65.7,40.075h.044l.044-.042a3.665,3.665,0,0,0,1.49-5.119v-.042L60.793,24.22c-.832-6.237-2.985-12.23-7.535-16.729C48.609,2.9,41.533,0,31.44,0Zm1.4,13.858a10.982,10.982,0,0,0-4.337.666,7.338,7.338,0,0,0-3.242,2,9.565,9.565,0,0,0-1.971,3.2,20.974,20.974,0,0,0-.832,3.829h2.8a10.668,10.668,0,0,1,.438-3.038A10.349,10.349,0,0,1,27.1,18.1a5.5,5.5,0,0,1,2.234-1.581,8.229,8.229,0,0,1,3.242-.541,7.565,7.565,0,0,1,2.5.416,5.268,5.268,0,0,1,2.1,1.165,6.752,6.752,0,0,1,1.4,1.873,5.068,5.068,0,0,1,.57,2.414,5.543,5.543,0,0,1-.832,3.038,12.036,12.036,0,0,1-2.1,2.539c-.843.931-1.709,1.623-2.41,2.289a10.518,10.518,0,0,0-1.665,2,6.048,6.048,0,0,0-.832,2.372A11.811,11.811,0,0,0,31,37.412h2.8a16.689,16.689,0,0,1,.175-3.038,6.553,6.553,0,0,1,.526-1.748,5.926,5.926,0,0,1,1.27-1.457l2.234-2.122a19.057,19.057,0,0,0,2.8-3.2,7.151,7.151,0,0,0,1.139-4,8.333,8.333,0,0,0-.7-3.329,6.058,6.058,0,0,0-1.971-2.539,10.138,10.138,0,0,0-6.44-2.122ZM30.608,40.367v4.494h3.768V40.367Z" transform="translate(-2)" fill="#fff"></path></svg>