<svg xmlns="http://www.w3.org/2000/svg" width="137.732" height="101.022" viewBox="0 0 137.732 101.022"><path id="_4._icons8-flexible" data-name="4. icons8-flexible" d="M136.065,95.462l-23.437-16.6a4.449,4.449,0,0,0-7.023,3.63v7.043H86.817a11.421,11.421,0,0,1-10.969-8.1L65.461,47.688A25.129,25.129,0,0,0,41.324,29.845H32.141V22.8a4.451,4.451,0,0,0-7.02-3.627L1.683,35.789a3.983,3.983,0,0,0,0,6.5L25.1,58.879a4.456,4.456,0,0,0,7.041-3.632V48.223h4.592a11.419,11.419,0,0,1,10.971,8.1L58.09,90.072A25.125,25.125,0,0,0,82.23,107.9h23.375v7.027a4.451,4.451,0,0,0,7.03,3.632l23.417-16.591a3.985,3.985,0,0,0,0-6.5ZM110.2,114.657v-9.052a2.3,2.3,0,0,0-2.3-2.3H82.23A20.556,20.556,0,0,1,62.486,88.727L52.1,54.979A15.99,15.99,0,0,0,36.732,43.62H29.845a2.3,2.3,0,0,0-2.3,2.3V54.97L5.051,39.026l22.5-15.93v9.045a2.3,2.3,0,0,0,2.3,2.3H41.324A20.559,20.559,0,0,1,61.067,49.019L71.453,82.767A15.988,15.988,0,0,0,86.814,94.126H107.9a2.3,2.3,0,0,0,2.3-2.3V82.774l22.515,15.944Z" transform="translate(-0.001 -18.36)" fill="#fff"></path></svg>