<svg xmlns="http://www.w3.org/2000/svg" width="109.196" height="135.19" viewBox="0 0 109.196 135.19"><path id="_3._icons8-defense" data-name="3. icons8-defense" d="M80.291,15.958l-.8.2s-9.572,2.421-20.775,4.817S34.425,25.693,28.9,25.693H25.693V89.926c0,20.6,13.75,35.893,27,45.866a119.179,119.179,0,0,0,26.5,14.954l1.1.4,1.1-.4a118.311,118.311,0,0,0,26.5-14.854c13.261-9.936,27-25.229,27-45.966V25.693h-3.212c-5.52,0-18.6-2.321-29.808-4.717s-20.775-4.817-20.775-4.817Zm0,6.624c.7.176,9.384,2.283,20.273,4.617,10.024,2.145,20.537,4.14,27.9,4.617v58.11c0,17.89-11.956,31.527-24.388,40.848a105.17,105.17,0,0,1-23.786,13.449A106.781,106.781,0,0,1,56.5,130.673c-12.445-9.359-24.388-23.021-24.388-40.748V31.815c7.364-.477,17.877-2.471,27.9-4.617C70.907,24.865,79.588,22.757,80.291,22.582Zm0,6.624-.8.2C71.66,31.3,54.5,35.315,41.249,37.335l-2.71.4V89.926c0,12.872,7.527,23.284,16.159,31.012a104.142,104.142,0,0,0,24.188,15.657l1.405.7,1.405-.7a103.624,103.624,0,0,0,24.188-15.657c8.631-7.728,16.159-18.153,16.159-31.012V37.737l-2.71-.4c-13.235-2.02-30.41-6.034-38.239-7.929Zm0,6.624c7.527,1.819,22.507,5.093,35.328,7.226v.1L44.963,90.227V43.056C57.784,40.923,72.764,37.649,80.291,35.83Zm35.328,15.155V64.634L51.185,107.59a33.42,33.42,0,0,1-5.119-10.137c-.013-.025.013-.075,0-.1Zm-54.6,2.007L54.6,61.021l6.423,8.029,6.423-8.029Zm54.6,19.37V89.926c0,10.325-6.172,19.132-14.051,26.195a94.661,94.661,0,0,1-21.277,13.85c-5.482-2.672-13.938-7.176-21.277-13.75-1.292-1.154-2.534-2.359-3.713-3.613ZM99.561,91.532l-6.423,8.029,6.423,8.029,6.423-8.029Z" transform="translate(-25.693 -15.958)" fill="#fff"></path></svg>