<svg xmlns="http://www.w3.org/2000/svg" width="123.102" height="123.102" viewBox="0 0 123.102 123.102"><path d="M31.143,31.143v123.1h123.1v-8.793H136.659V127.866h-8.793V110.28h8.793v-8.793H119.073V83.9H75.108V66.315H83.9V57.522h17.586v8.793H92.694v8.793H110.28V66.315h26.379V48.729h17.586V39.936h-8.793V31.143h-8.793v8.793h-8.793V31.143h-8.793v8.793H110.28V31.143h-8.793V48.729H92.694V31.143H83.9V48.729H75.108v8.793H66.315V75.108H48.729V83.9H66.315v8.793H57.522v8.793H75.108V92.694H110.28v35.172h8.793v8.793h8.793v8.793H110.28V127.866h-8.793v8.793H83.9v8.793H75.108v-8.793H57.522v8.793H39.936V75.108h8.793V48.729H39.936V31.143ZM48.729,48.729h8.793V31.143H48.729Zm52.758,79.137v-8.793H92.694v8.793ZM57.522,101.487H48.729v8.793h8.793ZM119.073,83.9h8.793v8.793h8.793v8.793h17.586V92.694h-8.793V83.9h8.793V75.108H119.073Zm17.586,26.379v17.586h8.793v-8.793h8.793V110.28Zm8.793,17.586v8.793h8.793v-8.793ZM66.315,31.143v8.793h8.793V31.143ZM110.28,48.729h8.793v8.793H110.28Zm35.172,8.793v8.793h8.793V57.522ZM92.694,101.487v8.793h8.793v-8.793ZM75.108,110.28v8.793H66.315v8.793H83.9V110.28Zm-26.379,8.793v8.793h8.793v-8.793Z" transform="translate(-31.143 -31.143)" fill="#fff"></path></svg>