<svg xmlns="http://www.w3.org/2000/svg" width="152.505" height="152.509" viewBox="0 0 152.505 152.509"><path id="_4._icons8-navigate" data-name="4. icons8-navigate" d="M75.662-.267a3.562,3.562,0,0,0-.381.1A3.053,3.053,0,0,0,72.9,2.875v6.19a67.078,67.078,0,0,0-63.9,63.9H2.53a3.051,3.051,0,1,0,.286,6.094h6.19a67.078,67.078,0,0,0,63.9,63.9v6.19a3.048,3.048,0,1,0,6.094,0v-6.285a66.991,66.991,0,0,0,61.8-49.707,3.049,3.049,0,1,0-5.9-1.524A60.945,60.945,0,0,1,79,136.856V124.762a3.048,3.048,0,1,0-6.094,0v12.093a60.853,60.853,0,0,1-57.8-57.8H27.193a3.048,3.048,0,1,0,0-6.094H15.1a60.853,60.853,0,0,1,57.8-57.8V27.253a3.048,3.048,0,1,0,6.094,0V15.159a60.945,60.945,0,0,1,55.9,45.231,3.049,3.049,0,1,0,5.9-1.524A66.991,66.991,0,0,0,79,9.16V2.875A3.051,3.051,0,0,0,75.662-.267Zm21.616,51.9,12.665,24.377L97.278,100.385l54.849-24.377Z" transform="translate(0.378 0.281)" fill="#fff"></path></svg>