<svg xmlns="http://www.w3.org/2000/svg" width="137.732" height="135.19" viewBox="0 0 137.732 135.19"><path id="_1._icons8-budget" data-name="1. icons8-budget" d="M59.512,7.574c-.852,0-21.521-1.122-35.856,12.111-8.9,8.162-13.2,19.712-13.2,34.353V68.392a16.867,16.867,0,0,0-2.869,9.856c0,8.173,7.174,12.122,10.334,13.53,2.578,6.754,14.627,36.882,38.446,36.882A28.943,28.943,0,0,0,73.578,122.8v-7.414c-4.708,4.444-10.446,7.645-17.216,7.645-21.812,0-33.29-34.067-33.29-34.353L22.5,87.268,21.066,86.7s-7.745-2.53-7.745-8.448c0-4.5,2.006-6.754,2.006-6.754l.863-.836V54.037c0-12.958,4.013-23.089,11.478-30.129,10.615-9.856,25.825-10.7,30.129-10.7l6.019,5.632h.874c12.621,1.408,25.242,5.346,30.981,25.069a53.655,53.655,0,0,1,.863,10.131V70.658l.863.836S99.4,73.749,99.4,78.248c0,5.918-7.745,8.448-7.745,8.448l-1.435.572-.583,1.408a4.979,4.979,0,0,1-.168.561h9.707c2.97-2.2,5.963-5.709,5.963-10.989,0-5.06-1.726-8.448-2.869-9.856V54.037a66.956,66.956,0,0,0-.863-11.264V42.5c-7.465-25.355-26.1-28.171-35-29.293L60.666,7.574ZM64.97,33.192a3.58,3.58,0,0,0-2.3,1.133C50.623,48.405,24.8,50.088,24.507,50.088a2.72,2.72,0,0,0-2.578,2.266L19.06,69.25a2.909,2.909,0,0,0,2.3,3.366A2.962,2.962,0,0,0,24.8,70.372l2.578-14.927c6.6-.561,25.544-3.663,37.314-14.927,6.882,8.734,16.634,13.244,20.646,14.652l2.589,15.2a2.779,2.779,0,0,0,2.869,2.244c.291,0,.28,0,.28.286a3.107,3.107,0,0,0,2.309-3.377l-2.869-16.9A2.783,2.783,0,0,0,88.5,50.374S74.442,45.864,67.268,34.6A2.954,2.954,0,0,0,64.97,33.192ZM42.015,61.077a14.944,14.944,0,0,0-10.906,4.785A2.705,2.705,0,0,0,31.4,69.8a5.322,5.322,0,0,0,2.006.572,3.3,3.3,0,0,0,2.3-.847,8.065,8.065,0,0,1,6.31-3.091,8.19,8.19,0,0,1,4.3,1.122,2.614,2.614,0,0,0,3.732-1.122,2.478,2.478,0,0,0-1.143-3.674A14.73,14.73,0,0,0,42.015,61.077Zm29.064.341a16.7,16.7,0,0,0-7.543,1.628,2.949,2.949,0,0,0-1.154,3.663,3.085,3.085,0,0,0,3.744,1.133c4.3-1.98,8.6-1.133,10.895,1.683a2.626,2.626,0,0,0,2.3,1.133,12.775,12.775,0,0,0,1.435-.286,2.715,2.715,0,0,0,.572-3.938A12.9,12.9,0,0,0,71.079,61.418ZM42.015,72.341a5.7,5.7,0,0,0-5.739,5.632,4.726,4.726,0,0,0,.863,2.816h9.752a4.726,4.726,0,0,0,.863-2.816A5.7,5.7,0,0,0,42.015,72.341Zm28.694,0a5.7,5.7,0,0,0-5.739,5.632,4.726,4.726,0,0,0,.863,2.816h9.752a4.726,4.726,0,0,0,.863-2.816A5.7,5.7,0,0,0,70.709,72.341ZM39.146,92.053v2.816c0,9.57,7.465,16.9,17.216,16.9s17.216-7.326,17.216-16.9V92.053Zm45.911,2.816V100.5h54.519V94.869ZM45.165,97.685H67.559a11.683,11.683,0,0,1-11.2,8.448A11.433,11.433,0,0,1,45.165,97.685Zm34.153,8.448V142.74h66V106.132Zm9.774,5.632H135.54a2.574,2.574,0,0,0-.045.506,3.405,3.405,0,0,0,3.463,3.322,5.576,5.576,0,0,0,.616-.055v17.8a5.58,5.58,0,0,0-.616-.055,3.405,3.405,0,0,0-3.463,3.322,2.574,2.574,0,0,0,.045.506H89.091a2.574,2.574,0,0,0,.045-.506,3.405,3.405,0,0,0-3.463-3.322,5.58,5.58,0,0,0-.616.055v-17.8a5.577,5.577,0,0,0,.616.055,3.405,3.405,0,0,0,3.463-3.322A2.574,2.574,0,0,0,89.091,111.764Zm23.224,2.816a9.858,9.858,0,1,0,10.043,9.856A9.991,9.991,0,0,0,112.315,114.58ZM95.1,120.212a4.113,4.113,0,1,0,4.3,4.1A4.208,4.208,0,0,0,95.1,120.212Zm17.216,0a4.225,4.225,0,1,1-4.3,4.224A4.224,4.224,0,0,1,112.315,120.212Zm17.216,0a4.113,4.113,0,1,0,4.3,4.1A4.208,4.208,0,0,0,129.532,120.212Z" transform="translate(-7.582 -7.55)" fill="#fff"></path></svg>