<svg xmlns="http://www.w3.org/2000/svg" width="97.679" height="135.19" viewBox="0 0 97.679 135.19"><path id="_2._icons8-assistance_2_" data-name="2. icons8-assistance (2)" d="M55.668,4.453A2.227,2.227,0,0,0,53.441,6.68v4.232c-.65.174-1.307.332-1.953.531l-.352.109A26.081,26.081,0,0,0,34.1,28.2l-.944,2.827A66.521,66.521,0,0,0,32.287,70.5a67.429,67.429,0,0,1-4.732,50.036l-9.446,16.4,3.862,2.227,9.511-16.522A71.825,71.825,0,0,0,36.575,69.28a62.089,62.089,0,0,1,.8-36.845l.944-2.823A21.615,21.615,0,0,1,52.445,15.8L52.8,15.7c.223-.067.43-.109.644-.174V43.034a10.43,10.43,0,0,0-6.68,9.711V67.5A10.45,10.45,0,0,0,57.2,77.935H65.27a10.33,10.33,0,0,0,4.44-1.031L96.279,98.493a6.457,6.457,0,0,1-5.706,3.405H83.28L68.358,87.463a2.228,2.228,0,0,0-3.092,3.21l14.9,14.4v2.079a18.586,18.586,0,0,0,6.393,14l18.77,18.5,3.114-3.175L89.69,117.989a14.171,14.171,0,0,1-5.075-10.838v-.8h5.958a10.862,10.862,0,0,0,9.185-5.036l3.488,2.836a2.227,2.227,0,0,0,1.409.5h8.907a2.227,2.227,0,0,0,2.227-2.227v-6.68a2.227,2.227,0,0,0-2.227-2.227h-5.9l-5.014-4.01,3.214-19.453a26.021,26.021,0,0,0,1.018-7.215V45.408a40.081,40.081,0,0,0-3.475-16.378l-1.361-3.057A26.088,26.088,0,0,0,86.489,11.851,57.129,57.129,0,0,0,69.028,8.963V6.68A2.227,2.227,0,0,0,66.8,4.453Zm2.227,4.453h6.68v33.4h-6.68Zm11.134,4.506A52.577,52.577,0,0,1,85.08,16.074,21.632,21.632,0,0,1,97.975,27.786l1.357,3.053a35.627,35.627,0,0,1,3.1,14.569V62.844a21.549,21.549,0,0,1-.878,6.087,2.17,2.17,0,0,0-.061.267L98.662,86.32l-23-18.405c0-.145.043-.281.043-.426V52.745a10.43,10.43,0,0,0-6.68-9.711ZM57.2,46.761H65.27a5.992,5.992,0,0,1,5.984,5.984V67.5a5.992,5.992,0,0,1-5.984,5.984H57.2A5.992,5.992,0,0,1,51.214,67.5V52.745A5.992,5.992,0,0,1,57.2,46.761Zm.7,2.227a4.453,4.453,0,0,0-4.453,4.453V66.8a4.453,4.453,0,0,0,4.453,4.453h6.68A4.453,4.453,0,0,0,69.028,66.8V53.441a4.453,4.453,0,0,0-4.453-4.453Zm0,4.453h6.68V66.8h-6.68ZM74.338,72.568l31.152,24.92a2.227,2.227,0,0,0,1.392.487h4.453V100.2h-5.889L73.3,74.081A10.427,10.427,0,0,0,74.338,72.568Z" transform="translate(-18.109 -4.453)" fill="#fff"></path></svg>