<svg xmlns="http://www.w3.org/2000/svg" width="394" height="134" viewBox="0 0 394 134">
  <g id="logo" transform="translate(-270 -246)">
    <rect id="Rectangle_105" data-name="Rectangle 105" width="394" height="134" transform="translate(270 246)" fill="#feefdd"/>
    <text id="AGENCE_DE_VOYAGES" data-name="AGENCE DE VOYAGES" transform="translate(308 355)" fill="#201e1f" font-size="23" font-family="KannadaMN, Kannada MN"><tspan x="0" y="0">AGENCE DE VOYAGES</tspan></text>
    <text id="L_Echappée_" data-name="L’Echappée " transform="translate(300 317)" fill="#50b2c0" font-size="50" font-family="KohinoorBangla-Bold, Kohinoor Bangla" font-weight="700"><tspan x="0" y="0">L’Echappée</tspan><tspan y="0" fill="#030303"> </tspan></text>
    <g id="icons8-avion-en-papier_1_" data-name="icons8-avion-en-papier (1)" transform="translate(581 263)">
      <path id="Tracé_583" data-name="Tracé 583" d="M1.92,17.859,48.854,1.8,32.8,48.737Z" transform="translate(0.27 0.236)" fill="#fff"/>
      <path id="Tracé_584" data-name="Tracé 584" d="M48.085,3.078l-15.294,44.7L3.382,18.371l44.7-15.294M50.163,1,1,17.819,33.344,50.163,50.163,1Z" transform="translate(0 0)" fill="#0f7173" stroke="#0f7173" stroke-width="1"/>
      <path id="Tracé_585" data-name="Tracé 585" d="M10.5,35.786V27.712L38.185,8.1,18.574,35.786Z" transform="translate(2.791 2.086)" fill="#fff"/>
      <path id="Tracé_586" data-name="Tracé 586" d="M35.614,11.436,18.387,35.757H11.294V28.663l24.32-17.226M41.05,6,10,27.994V37.05h9.056L41.05,6Z" transform="translate(2.644 1.469)" fill="#0f7173"/>
      <g id="Groupe_9" data-name="Groupe 9" transform="translate(13.938 12.904)">
        <path id="Tracé_587" data-name="Tracé 587" d="M11,34.522V27.429L35.32,10.2Z" transform="translate(-11 -10.201)" fill="#0f7173"/>
      </g>
    </g>
  </g>
</svg>
