<svg xmlns="http://www.w3.org/2000/svg" xmlns:xlink="http://www.w3.org/1999/xlink" width="1440" height="1275" viewBox="0 0 1440 1275"><defs><clipPath id="a"><rect width="673.5" height="125" fill="none"/></clipPath><clipPath id="c"><rect width="1440" height="1275"/></clipPath></defs><g id="b" clip-path="url(#c)"><rect width="1440" height="1275" fill="#fff"/><g transform="translate(0 -4011)"><g transform="translate(0 5090)"><g fill="#201e1f" stroke="#030303" stroke-width="1"><rect width="1440" height="200" stroke="none"/><rect x="0.5" y="0.5" width="1439" height="199" fill="none"/></g></g><g transform="translate(550 5212.091)"><text transform="translate(1 7.909)" fill="#fff" font-size="18" font-family="Hind-SemiBold, Hind" font-weight="600"><tspan x="0" y="0" xml:space="preserve">Mentions légales    Politique de confidentialité</tspan></text></g><g transform="translate(569 5146.819)"><text transform="translate(0 32.181)" fill="#fff" font-size="18" font-family="Hind-Regular, Hind"><tspan x="0" y="0">Copyright @ 2022, tous droits réservés </tspan></text></g></g><g transform="translate(220 487)"><g transform="translate(-33 21)" fill="#fff" stroke="#50b2c0" stroke-width="1"><rect width="948" height="528" rx="11" stroke="none"/><rect x="0.5" y="0.5" width="947" height="527" rx="10.5" fill="none"/></g><g transform="translate(247 -38.308)"><text transform="translate(0 39)" fill="#50b2c0" font-size="40" font-family="Lato-Bold, Lato" font-weight="700"><tspan x="0" y="0">Formulaire de contact</tspan></text></g><g transform="translate(-391 -658)"><text transform="translate(612 536)" fill="#201e1f" font-size="50" font-family="Montserrat-Bold, Montserrat" font-weight="700"><tspan x="0" y="0">Contactez-nous </tspan></text></g><g transform="translate(386 436)"><rect width="96" height="45" rx="5" fill="#e3655b"/><text transform="translate(48 28)" fill="#fff" font-size="18" font-family="Hind-SemiBold, Hind" font-weight="600"><tspan x="-32.229" y="0">Envoyer</tspan></text></g><g transform="translate(102.178 -4.4)"><g transform="translate(-0.178 220.4)"><g fill="#fff" stroke="#e0e0e0" stroke-width="1"><rect width="664" height="174" rx="5" stroke="none"/><rect x="-0.5" y="-0.5" width="665" height="175" rx="5.5" fill="none"/></g><text transform="translate(13 41)" fill="gray" font-size="18" font-family="Hind-Regular, Hind"><tspan x="0" y="0">Message</tspan></text></g></g><g transform="translate(97 77)" clip-path="url(#a)"><g transform="translate(-179.5 -77)"><g transform="translate(180.5 78)"><g fill="#eaecef" stroke="#ced4da" stroke-width="1"><rect width="319.5" height="38" rx="5" stroke="none"/><rect x="-0.5" y="-0.5" width="320.5" height="39" rx="5.5" fill="none"/></g><text transform="translate(12.5 23.5)" fill="#6c757d" font-size="16" font-family="HelveticaNeue, Helvetica Neue"><tspan x="0" y="0">Nom</tspan><tspan font-family="HelveticaNeue"><tspan x="0" y="24"></tspan></tspan></text></g></g><g transform="translate(162.5 -77)"><g transform="translate(180.5 78)"><g fill="#eaecef" stroke="#ced4da" stroke-width="1"><rect width="319.5" height="38" rx="5" stroke="none"/><rect x="-0.5" y="-0.5" width="320.5" height="39" rx="5.5" fill="none"/></g><text transform="translate(12.5 23.5)" fill="#6c757d" font-size="16" font-family="HelveticaNeue, Helvetica Neue"><tspan x="0" y="0">Prénom</tspan></text></g></g><g transform="translate(-179.5 -5)"><g transform="translate(180.5 78)"><g fill="#eaecef" stroke="#ced4da" stroke-width="1"><rect width="319.5" height="38" rx="5" stroke="none"/><rect x="-0.5" y="-0.5" width="320.5" height="39" rx="5.5" fill="none"/></g><text transform="translate(12.5 23.5)" fill="#6c757d" font-size="16" font-family="HelveticaNeue, Helvetica Neue"><tspan x="0" y="0">Email</tspan></text></g></g><g transform="translate(162.5 -5)"><g transform="translate(180.5 78)"><g fill="#eaecef" stroke="#ced4da" stroke-width="1"><rect width="319.5" height="38" rx="5" stroke="none"/><rect x="-0.5" y="-0.5" width="320.5" height="39" rx="5.5" fill="none"/></g><text transform="translate(12.5 23.5)" fill="#6c757d" font-size="16" font-family="HelveticaNeue, Helvetica Neue"><tspan x="0" y="0">Téléphone</tspan></text></g></g></g></g><g fill="#feefdd" stroke="#50b2c0" stroke-width="1"><rect width="1440" height="264" stroke="none"/><rect x="0.5" y="0.5" width="1439" height="263" fill="none"/></g><g transform="translate(-178 -181)"><rect width="394" height="134" transform="translate(270 246)" fill="#feefdd"/><text transform="translate(308 355)" fill="#201e1f" font-size="23" font-family="KannadaMN, Kannada MN"><tspan x="0" y="0">AGENCE DE VOYAGES</tspan></text><text transform="translate(300 317)" fill="#50b2c0" font-size="50" font-family="KohinoorBangla-Bold, Kohinoor Bangla" font-weight="700"><tspan x="0" y="0">L’Echappée</tspan><tspan y="0" fill="#030303"> </tspan></text><g transform="translate(581 263)"><path d="M1.92,17.859,48.854,1.8,32.8,48.737Z" transform="translate(0.27 0.236)" fill="#fff"/><path d="M48.085,3.078l-15.294,44.7L3.382,18.371l44.7-15.294M50.163,1,1,17.819,33.344,50.163,50.163,1Z" transform="translate(0 0)" fill="#0f7173" stroke="#0f7173" stroke-width="1"/><path d="M10.5,35.786V27.712L38.185,8.1,18.574,35.786Z" transform="translate(2.791 2.086)" fill="#fff"/><path d="M35.614,11.436,18.387,35.757H11.294V28.663l24.32-17.226M41.05,6,10,27.994V37.05h9.056L41.05,6Z" transform="translate(2.644 1.469)" fill="#0f7173"/><g transform="translate(13.938 12.904)"><path d="M11,34.522V27.429L35.32,10.2Z" transform="translate(-11 -10.201)" fill="#0f7173"/></g></g></g><text transform="translate(799 139)" fill="#201e1f" font-size="20" font-family="Hind-SemiBold, Hind" font-weight="600"><tspan x="0" y="0" xml:space="preserve">Accueil     A Propos     Destinations    Mon compte         </tspan></text><g transform="translate(64 66)"><path d="M0,7V37H41.667V7ZM1.667,8.667H4.974l10.859,7.422V8.667h2.5V19.5H1.667V17h9.661L1.667,10.411Zm21.667,0h2.5v7.422L36.693,8.667H40v1.745L30.339,17H40v2.5H23.333ZM1.667,24.5H18.333V35.333h-2.5V27.911L4.974,35.333H1.667V33.589L11.328,27H1.667Zm21.667,0H40V27H30.339L40,33.589v1.745H36.693L25.833,27.911v7.422h-2.5Z" transform="translate(1208 43)"/></g></g></svg>