<svg xmlns="http://www.w3.org/2000/svg" xmlns:xlink="http://www.w3.org/1999/xlink" width="1440" height="2285" viewBox="0 0 1440 2285"><defs><clipPath id="a"><path d="M4,0H283a4,4,0,0,1,4,4V107a0,0,0,0,1,0,0H0a0,0,0,0,1,0,0V4A4,4,0,0,1,4,0Z" transform="translate(0 0)" fill="#fff"/></clipPath><clipPath id="c"><rect width="1440" height="2285"/></clipPath></defs><g id="b" clip-path="url(#c)"><rect width="1440" height="2285" fill="#fff"/><g transform="translate(0 -3005)"><g transform="translate(0 5090)"><g fill="#201e1f" stroke="#030303" stroke-width="1"><rect width="1440" height="200" stroke="none"/><rect x="0.5" y="0.5" width="1439" height="199" fill="none"/></g></g><g transform="translate(550 5212.091)"><text transform="translate(1 7.909)" fill="#fff" font-size="18" font-family="Hind-SemiBold, Hind" font-weight="600"><tspan x="0" y="0" xml:space="preserve">Mentions légales    Politique de confidentialité</tspan></text></g><g transform="translate(569 5146.819)"><text transform="translate(0 32.181)" fill="#fff" font-size="18" font-family="Hind-Regular, Hind"><tspan x="0" y="0">Copyright @ 2022, tous droits réservés </tspan></text></g></g><g transform="translate(0 898)"><g transform="translate(0 690)"><g fill="#fff" stroke="#50b2c0" stroke-width="1"><rect width="1440" height="496" stroke="none"/><rect x="0.5" y="0.5" width="1439" height="495" fill="none"/></g></g><g transform="translate(0 -123)"><g transform="translate(458 889.692)"><text transform="translate(0 39)" fill="#50b2c0" font-size="40" font-family="Lato-Bold, Lato" font-weight="700"><tspan x="0" y="0">Abonnez-vous à la newsletter</tspan></text></g><g transform="translate(645.25 1138)"><rect width="103" height="45" rx="5" fill="#e3655b"/><text transform="translate(16 28)" fill="#fff" font-size="18" font-family="Hind-SemiBold, Hind" font-weight="600"><tspan x="0" y="0">S’inscrire</tspan></text></g><g transform="translate(537.75 986)"><g fill="#fff" stroke="#e0e0e0" stroke-width="1"><rect width="353" height="38" rx="5" stroke="none"/><rect x="-0.5" y="-0.5" width="354" height="39" rx="5.5" fill="none"/></g><text transform="translate(12.5 23.5)" fill="#868d96" font-size="18" font-family="Hind-Regular, Hind"><tspan x="0" y="0">Saisissez votre email</tspan></text></g><g transform="translate(537.75 1049)"><g fill="#fff" stroke="#e0e0e0" stroke-width="1"><rect width="353" height="38" rx="5" stroke="none"/><rect x="-0.5" y="-0.5" width="354" height="39" rx="5.5" fill="none"/></g><text transform="translate(12.5 23.5)" fill="#868d96" font-size="18" font-family="Hind-Regular, Hind"><tspan x="0" y="0">Confirmez votre email</tspan></text></g></g><g transform="translate(593.5 217)"><g fill="#fff" stroke="#e0e0e0" stroke-width="1"><rect width="162" height="38" rx="5" stroke="none"/><rect x="-0.5" y="-0.5" width="163" height="39" rx="5.5" fill="none"/></g><text transform="translate(12.5 23.5)" fill="#868d96" font-size="16" font-family="HelveticaNeue, Helvetica Neue"><tspan x="0" y="0">Password</tspan></text></g><g transform="translate(764 217)"><rect width="83" height="38" rx="5" fill="#007bff"/><text transform="translate(16 24)" fill="#fff" font-size="16" font-family="HelveticaNeue, Helvetica Neue"><tspan x="0" y="0">Submit</tspan></text></g></g><g transform="translate(0 374)"><g transform="translate(0 690)"><g fill="#fff" stroke="#50b2c0" stroke-width="1"><rect width="1440" height="524" stroke="none"/><rect x="0.5" y="0.5" width="1439" height="523" fill="none"/></g><g transform="translate(325 188)"><g fill="#0f7173" stroke="#e0e0e0" stroke-width="1"><rect width="791" height="275" rx="5" stroke="none"/><rect x="0.5" y="0.5" width="790" height="274" rx="4.5" fill="none"/></g><g transform="translate(252 31)" clip-path="url(#a)"><g transform="translate(0 0)"><rect width="329" height="97" fill="#0f7173"/><path d="M31.44,0C21.309,0,13.84,3.324,9.01,8.531S2,20.719,2,27.965A26.906,26.906,0,0,0,7.17,43.779a23.535,23.535,0,0,1,4.644,13.733v9.072h2.8V57.512A26.174,26.174,0,0,0,9.535,42.364l-.088-.125A24.218,24.218,0,0,1,4.8,27.965c0-6.736,2.026-13.072,6.309-17.686S21.945,2.663,31.44,2.663c9.534,0,15.722,2.627,19.8,6.658s6.084,9.6,6.834,15.606l.044.291.131.208,6.615,10.778h-.044a1,1,0,0,1-.438,1.5v.042l-6.309,3v7.99a8.568,8.568,0,0,1-9.551,8.406h-.044l-4.337-.291-1.49-.083v9.821h2.8V59.593l2.8.208h.044a11.4,11.4,0,0,0,12.574-11.07V42.364L65.7,40.075h.044l.044-.042a3.665,3.665,0,0,0,1.49-5.119v-.042L60.793,24.22c-.832-6.237-2.985-12.23-7.535-16.729C48.609,2.9,41.533,0,31.44,0Zm1.4,13.858a10.982,10.982,0,0,0-4.337.666,7.338,7.338,0,0,0-3.242,2,9.565,9.565,0,0,0-1.971,3.2,20.974,20.974,0,0,0-.832,3.829h2.8a10.668,10.668,0,0,1,.438-3.038A10.349,10.349,0,0,1,27.1,18.1a5.5,5.5,0,0,1,2.234-1.581,8.229,8.229,0,0,1,3.242-.541,7.565,7.565,0,0,1,2.5.416,5.268,5.268,0,0,1,2.1,1.165,6.752,6.752,0,0,1,1.4,1.873,5.068,5.068,0,0,1,.57,2.414,5.543,5.543,0,0,1-.832,3.038,12.036,12.036,0,0,1-2.1,2.539c-.843.931-1.709,1.623-2.41,2.289a10.518,10.518,0,0,0-1.665,2,6.048,6.048,0,0,0-.832,2.372A11.811,11.811,0,0,0,31,37.412h2.8a16.689,16.689,0,0,1,.175-3.038,6.553,6.553,0,0,1,.526-1.748,5.926,5.926,0,0,1,1.27-1.457l2.234-2.122a19.057,19.057,0,0,0,2.8-3.2,7.151,7.151,0,0,0,1.139-4,8.333,8.333,0,0,0-.7-3.329,6.058,6.058,0,0,0-1.971-2.539,10.138,10.138,0,0,0-6.44-2.122ZM30.608,40.367v4.494h3.768V40.367Z" transform="translate(144.659 16.94)" fill="#fff"/></g></g><text transform="translate(69 185)" fill="#fff" font-size="18" font-family="Hind-Regular, Hind"><tspan x="0" y="0" xml:space="preserve">N’hésitez pas à nous contacter du lundi au vendredi de 9 h à 19 h au :  </tspan><tspan y="0" font-family="Hind-SemiBold, Hind" font-weight="600">01.78.45.67.89 </tspan></text></g></g><g transform="translate(586 766.692)"><text transform="translate(0 39)" fill="#50b2c0" font-size="40" font-family="Lato-Bold, Lato" font-weight="700"><tspan x="0" y="0">Un problème ? </tspan></text></g></g><g transform="translate(0 -425)"><g transform="translate(0 690)"><g fill="#fff" stroke="#50b2c0" stroke-width="1"><rect width="1440" height="799" stroke="none"/><rect x="0.5" y="0.5" width="1439" height="798" fill="none"/></g></g><g transform="translate(624 894.692)"><text transform="translate(0 39)" fill="#50b2c0" font-size="40" font-family="Lato-Bold, Lato" font-weight="700"><tspan x="0" y="0">Connexion</tspan></text></g><g transform="translate(-67 254)"><text transform="translate(612 536)" fill="#030303" font-size="50" font-family="Montserrat-Bold, Montserrat" font-weight="700"><tspan x="0" y="0">Mon Compte </tspan></text></g><g transform="translate(300 992)" fill="#fff" stroke="#50b2c0" stroke-width="1"><rect width="840" height="376" rx="9" stroke="none"/><rect x="0.5" y="0.5" width="839" height="375" rx="8.5" fill="none"/></g><g transform="translate(639 1283)"><rect width="135" height="45" rx="5" fill="#e3655b"/><text transform="translate(16 28)" fill="#fff" font-size="18" font-family="Hind-SemiBold, Hind" font-weight="600"><tspan x="0" y="0">Se connecter</tspan></text></g><g transform="translate(102.257 -30.052)"><g transform="translate(517.743 1246.052)"><text transform="translate(19 19)" fill="#212529" font-size="18" font-family="Hind-Regular, Hind"><tspan x="0" y="0">Créer un compte </tspan></text><g transform="translate(0 6.5)"><g fill="#fff" stroke="#b7b7b7" stroke-miterlimit="10" stroke-width="1"><rect width="14" height="14" rx="3" stroke="none"/><rect x="0.5" y="0.5" width="13" height="13" rx="2.5" fill="none"/></g></g></g><g transform="translate(517.743 1206.052)"><text transform="translate(19 19)" fill="#212529" font-size="18" font-family="Hind-Regular, Hind"><tspan x="0" y="0">Mot de passe oublié</tspan></text><g transform="translate(0 6.5)"><g fill="#fff" stroke="#b7b7b7" stroke-miterlimit="10" stroke-width="1"><rect width="14" height="14" rx="3" stroke="none"/><rect x="0.5" y="0.5" width="13" height="13" rx="2.5" fill="none"/></g></g></g></g><g transform="translate(727 1035)"><text transform="translate(0 17)" fill="#212529" font-size="16" font-family="Hind-Regular, Hind"><tspan x="0" y="0">Mot de passe</tspan></text><g transform="translate(0 31)"><g fill="#fff" stroke="#e0e0e0" stroke-width="1"><rect width="270.5" height="38" rx="5" stroke="none"/><rect x="-0.5" y="-0.5" width="271.5" height="39" rx="5.5" fill="none"/></g><text transform="translate(12.5 23.5)" fill="#868d96" font-size="18" font-family="Hind-Regular, Hind"><tspan x="0" y="0">Saisissez votre mot de passe </tspan></text></g></g><g transform="translate(406.5 1035)"><g transform="translate(0.5 30.693)"><g fill="#fff" stroke="#e0e0e0" stroke-width="1"><rect width="270" height="38" rx="5" stroke="none"/><rect x="-0.5" y="-0.5" width="271" height="39" rx="5.5" fill="none"/></g><text transform="translate(12.5 23.5)" fill="#868d96" font-size="18" font-family="Hind-Regular, Hind"><tspan x="0" y="0">Saisissez votre identifiant</tspan></text></g><text fill="#212529" font-size="16" font-family="Hind-Regular, Hind"><tspan x="0" y="17">Identifiant</tspan></text></g></g><g transform="translate(22)"><g transform="translate(-22)" fill="#feefdd" stroke="#50b2c0" stroke-width="1"><rect width="1440" height="264" stroke="none"/><rect x="0.5" y="0.5" width="1439" height="263" fill="none"/></g><g transform="translate(-178 -181)"><rect width="394" height="134" transform="translate(270 246)" fill="#feefdd"/><text transform="translate(308 355)" fill="#201e1f" font-size="23" font-family="KannadaMN, Kannada MN"><tspan x="0" y="0">AGENCE DE VOYAGES</tspan></text><text transform="translate(300 317)" fill="#50b2c0" font-size="50" font-family="KohinoorBangla-Bold, Kohinoor Bangla" font-weight="700"><tspan x="0" y="0">L’Echappée</tspan><tspan y="0" fill="#030303"> </tspan></text><g transform="translate(581 263)"><path d="M1.92,17.859,48.854,1.8,32.8,48.737Z" transform="translate(0.27 0.236)" fill="#fff"/><path d="M48.085,3.078l-15.294,44.7L3.382,18.371l44.7-15.294M50.163,1,1,17.819,33.344,50.163,50.163,1Z" transform="translate(0 0)" fill="#0f7173" stroke="#0f7173" stroke-width="1"/><path d="M10.5,35.786V27.712L38.185,8.1,18.574,35.786Z" transform="translate(2.791 2.086)" fill="#fff"/><path d="M35.614,11.436,18.387,35.757H11.294V28.663l24.32-17.226M41.05,6,10,27.994V37.05h9.056L41.05,6Z" transform="translate(2.644 1.469)" fill="#0f7173"/><g transform="translate(13.938 12.904)"><path d="M11,34.522V27.429L35.32,10.2Z" transform="translate(-11 -10.201)" fill="#0f7173"/></g></g></g><text transform="translate(799 139)" fill="#201e1f" font-size="20" font-family="Hind-SemiBold, Hind" font-weight="600"><tspan x="0" y="0" xml:space="preserve">Accueil     A Propos     Destinations    Contact         </tspan></text><g transform="translate(30 68)"><path d="M0,7V37H41.667V7ZM1.667,8.667H4.974l10.859,7.422V8.667h2.5V19.5H1.667V17h9.661L1.667,10.411Zm21.667,0h2.5v7.422L36.693,8.667H40v1.745L30.339,17H40v2.5H23.333ZM1.667,24.5H18.333V35.333h-2.5V27.911L4.974,35.333H1.667V33.589L11.328,27H1.667Zm21.667,0H40V27H30.339L40,33.589v1.745H36.693L25.833,27.911v7.422h-2.5Z" transform="translate(1208 43)"/></g></g></g></svg>